<svg width="190" height="110" viewBox="0 0 190 110" fill="none" xmlns="http://www.w3.org/2000/svg">
<path d="M36.1049 57.2265C34.2508 57.2795 32.7564 56.1693 32.6043 54.7821C32.4522 53.3949 33.6521 52.0117 35.33 51.8834C36.35 51.7903 37.3817 51.9071 38.3365 52.2239C39.2914 52.5407 40.141 53.048 40.8127 53.7025C41.1748 54.0406 41.2955 54.4888 40.9044 54.8839C39.6918 56.1276 37.9872 56.9596 36.1049 57.2265Z" fill="white"/>
<path d="M89.6695 52.6289C89.215 52.2009 88.7236 51.8019 88.1993 51.4352C84.5589 48.7242 80.5774 46.358 76.3261 44.3789C75.0514 43.7861 74.0495 43.0691 74.2016 41.7165C74.3319 40.5472 75.2662 39.9117 77.2435 39.5613C80.0875 39.0602 82.8445 38.3391 85.4181 37.182C86.6252 36.6381 87.784 36.0392 88.728 35.1898C89.672 34.3404 89.7251 33.6009 88.8511 32.7209C88.6328 32.4986 88.3903 32.294 88.1268 32.1098C83.9792 29.2437 79.257 27.6141 73.8684 27.5122H73.3856H72.1108H71.4204L70.713 27.5224L69.9887 27.5346L69.2814 27.5489L68.5909 27.5631L67.9294 27.5794L67.3138 27.5937L66.7512 27.61L66.2539 27.6222H65.8387H65.5152H65.293C65.0975 27.6222 64.9019 27.6222 64.704 27.6222H63.1565C60.6022 27.6222 58.0479 27.6609 55.4961 27.6222C54.125 27.5943 52.7803 27.9432 51.6647 28.6163C50.0713 29.5513 49.9747 30.9059 51.3412 32.0792C52.2538 32.8655 53.403 33.055 54.6294 32.9511C55.6434 32.8635 56.6453 32.6863 57.6544 32.5437C60.0083 32.2381 62.3453 31.8042 64.7426 31.8592C65.5067 31.846 66.2686 31.9347 66.9999 32.122C68.7623 32.6618 69.0472 34.4015 67.5721 35.3813C67.0859 35.6716 66.5778 35.935 66.0511 36.1696C62.517 37.9099 59.1773 39.9171 56.0731 42.1666C44.2611 50.7548 36.6965 61.4771 33.3793 74.3335C33.026 75.664 32.7768 77.0128 32.6333 78.3709C32.5005 79.7092 33.3986 80.63 34.8327 80.8928C36.0398 81.1168 37.329 80.5444 37.9253 79.4485C38.2778 78.7987 38.5241 78.1061 38.8138 77.4318C40.762 72.8892 43.1859 68.5483 46.6069 64.6474C52.8573 57.5178 61.2082 53.8674 71.7632 53.9224C76.4033 53.9448 80.8914 54.7005 85.2829 55.9411C85.8347 56.1237 86.399 56.2781 86.9728 56.4035C87.5604 56.5069 88.1717 56.4482 88.7168 56.2363C89.2619 56.0243 89.7118 55.6702 90.0003 55.2261C90.5797 54.3644 90.4952 53.4579 89.6695 52.6289ZM78.8562 31.7981C79.1604 31.7981 79.4577 31.8742 79.7106 32.0168C79.9635 32.1594 80.1606 32.3621 80.277 32.5992C80.3934 32.8363 80.4239 33.0972 80.3645 33.3489C80.3052 33.6006 80.1587 33.8318 79.9436 34.0133C79.7286 34.1947 79.4545 34.3183 79.1562 34.3684C78.8579 34.4185 78.5487 34.3928 78.2677 34.2945C77.9867 34.1963 77.7465 34.03 77.5775 33.8166C77.4085 33.6032 77.3183 33.3524 77.3183 33.0957C77.3183 32.9253 77.3581 32.7566 77.4354 32.5992C77.5127 32.4417 77.626 32.2987 77.7688 32.1782C77.9116 32.0577 78.0811 31.9621 78.2677 31.8969C78.4543 31.8317 78.6542 31.7981 78.8562 31.7981Z" fill="white"/>
<path d="M62.2197 69.3225C62.2197 68.5593 62.453 67.4389 62.9198 65.9614C63.3865 64.4839 63.6207 63.4015 63.6223 62.7143C63.6329 62.2053 63.5255 61.6995 63.3061 61.2253C63.0333 60.1049 62.8981 59.5203 62.8981 59.4673C62.8817 59.2684 62.9324 59.0697 63.0443 58.8941C63.1563 58.7185 63.3249 58.5733 63.5306 58.4753C65.0568 57.6898 66.8128 57.2799 68.6005 57.2918C70.7083 57.3028 72.7732 57.7956 74.5757 58.7177C76.4647 59.6418 78.0499 60.9499 79.1869 62.5229C79.5339 62.9656 79.7224 63.4832 79.7301 64.014C79.7301 65.4643 78.1005 67.1062 74.8413 68.9395C75.8713 73.4984 77.3199 77.2921 79.1869 80.3204C79.2688 80.4226 79.3163 80.5416 79.3245 80.6647C79.3245 80.9703 79.0976 81.2249 78.6437 81.4286C78.1844 81.6339 77.6715 81.739 77.1517 81.7342C76.7142 81.7541 76.2819 81.6462 75.9277 81.4286C74.5403 80.4617 73.4547 78.7051 72.6709 76.1588C71.7953 73.4088 70.8594 71.5497 69.8631 70.5814C69.5613 70.3288 69.0495 70.2005 68.3253 70.2005C67.3885 70.2005 66.7995 70.3913 66.558 70.7729C66.3418 71.3932 66.2353 72.037 66.2418 72.6836C66.2418 73.4984 66.4679 74.6819 66.9202 76.2342C67.3741 77.8896 67.6155 79.0738 67.6444 79.7867C67.6758 80.1432 67.3427 80.4427 66.6498 80.6851C66.0088 80.9196 65.3004 80.9904 64.6122 80.8888C64.1004 80.7367 63.6634 80.3673 63.3012 79.7806C62.6655 78.3805 62.3034 76.6619 62.2148 74.6249L62.2197 69.3225ZM67.4658 64.3562C66.983 65.554 66.7415 66.2547 66.7415 66.4584C66.7415 66.9921 67.4924 67.259 68.994 67.259C71.129 67.2958 73.2027 66.6554 74.8051 65.4643C75.4641 65.1853 75.7949 64.8532 75.7949 64.4723C75.7915 64.3606 75.7439 64.253 75.6597 64.1668C74.5492 62.256 72.3876 61.1479 69.1751 60.8423C68.4846 60.7934 68.0339 61.2266 67.8231 62.1419C67.704 62.8821 67.5849 63.6201 67.4658 64.3562Z" fill="white"/>
<path d="M82.9942 70.9642C82.9652 69.2328 83.5687 67.7878 84.8048 66.6294C85.3989 66.0625 86.1337 65.6129 86.9569 65.3126C87.7801 65.0123 88.6717 64.8686 89.5681 64.8918C91.6202 64.8918 93.4381 65.5471 95.0219 66.8576C96.6056 68.1681 97.383 69.7026 97.354 71.4613C97.082 72.1742 95.9497 73.0271 93.9572 74.0198C91.4834 75.2665 90.1105 76.0045 89.8385 76.2341C89.3267 76.4378 89.0684 76.6557 89.0684 76.8839C89.0684 77.2913 89.4007 77.6539 90.0654 77.9716C90.5954 78.2562 91.2031 78.421 91.8302 78.4503C92.8265 78.4503 94.2598 78.0429 96.13 77.2281C96.4051 77.3904 96.628 77.608 96.7785 77.8613C96.929 78.1145 97.0023 78.3954 96.9919 78.6785C96.9924 79.1626 96.8012 79.6329 96.4487 80.0148C96.2842 80.2093 96.075 80.3739 95.8337 80.4988C95.5923 80.6237 95.3236 80.7064 95.0436 80.742C93.1122 80.9973 91.8906 81.1243 91.3788 81.1229C90.4255 81.1383 89.4792 80.9828 88.6024 80.6666C85.0133 79.3168 83.1438 76.0826 82.9942 70.9642ZM87.9288 72.9116C90.6135 72.8098 92.2431 72.0079 92.8177 70.5059C92.934 70.317 92.996 70.1077 92.9987 69.8948C92.9987 69.3597 92.6664 68.9272 92.0017 68.5972C91.3298 68.2636 90.5625 68.0917 89.783 68.1002C89.2475 68.0863 88.7171 68.1917 88.2451 68.4057C87.3696 68.7873 86.9318 69.5892 86.9318 70.8115C86.9318 72.1627 87.2641 72.8628 87.9288 72.9116Z" fill="white"/>
<path d="M105.082 64.8145C105.233 64.4329 105.566 63.2236 106.079 61.1866C106.441 59.7606 106.939 58.6783 107.573 57.9395C107.905 57.5077 108.554 57.2917 109.519 57.2917C110.092 57.2917 110.454 57.4445 110.606 57.7501C111.6 59.5576 112.506 61.7984 113.322 64.4723C113.986 66.8149 114.65 69.1697 115.314 71.5368C115.314 71.716 115.516 71.8932 115.924 72.0725C116.236 72.185 116.508 72.3623 116.716 72.5879C116.837 72.7544 116.9 72.9465 116.897 73.1419C116.905 73.2247 116.893 73.3078 116.861 73.3865C116.83 73.4652 116.781 73.5379 116.716 73.6003C116.478 74.071 116.355 74.5775 116.354 75.0893C116.354 75.676 116.625 76.6056 117.168 77.8781C117.681 79.05 117.877 79.9789 117.757 80.6647C117.636 81.3777 116.972 81.7342 115.765 81.7342C115.48 81.7502 115.194 81.7063 114.934 81.6064C114.673 81.5065 114.446 81.3537 114.273 81.1618C113.848 80.6783 113.486 79.6469 113.187 78.0675C112.944 76.7434 112.43 75.8777 111.646 75.4703C110.935 75.1552 110.141 74.9975 109.338 75.0119C108.031 74.981 106.752 75.3322 105.717 76.006C105.263 76.3116 104.765 77.4061 104.223 79.2897C103.77 80.9193 103.032 81.7342 102.006 81.7342C101.45 81.7111 100.907 81.5808 100.42 81.3532C100.33 80.9888 100.284 80.6174 100.285 80.2451C100.285 79.4561 100.511 78.4634 100.963 77.2669C101.597 75.6115 101.96 74.6181 102.05 74.2868C102.853 71.0846 103.865 67.9223 105.082 64.8145ZM107.573 68.253C107.385 68.8902 107.143 69.5151 106.849 70.123C106.487 70.8876 106.306 71.4227 106.306 71.7282C106.293 71.8579 106.325 71.9878 106.397 72.1029C106.469 72.218 106.578 72.3134 106.712 72.378C107.374 72.6488 108.105 72.7795 108.841 72.759C110.077 72.759 110.801 72.4663 111.014 71.881C111.166 71.434 111.241 70.971 111.238 70.506C111.198 69.5066 110.938 68.5223 110.471 67.6032C110.379 67.3751 109.881 66.4455 108.976 64.8145C108.313 65.503 107.845 66.6492 107.573 68.253Z" fill="white"/>
<path d="M120.712 71.8037C121.194 69.4122 122.447 67.4519 124.468 65.9228C126.128 64.6761 127.259 63.8742 127.863 63.5171C129.279 62.6764 130.591 62.2561 131.8 62.2561C132.427 62.2542 133.046 62.3719 133.611 62.6004C133.827 62.6692 134.011 62.7963 134.134 62.9619C134.256 63.1276 134.311 63.3226 134.289 63.5171C134.287 63.7102 134.257 63.9024 134.2 64.0895C133.838 65.0061 133.053 65.7191 131.846 66.2283C129.823 67.0432 128.721 67.5015 128.541 67.6033C126.309 69.0293 125.132 70.557 125.011 72.1867C124.891 73.5624 125.208 74.7466 125.963 75.7393C126.41 76.3119 127.058 76.7521 127.817 76.9982C128.573 77.2019 129.342 77.4185 130.125 77.648C130.396 77.7495 130.69 77.8016 130.987 77.8007C131.651 77.8007 132.537 77.4382 133.642 76.713C134.748 75.9878 135.57 75.6123 136.107 75.5865C136.831 75.5362 137.194 75.816 137.194 76.4258C137.165 77.1649 136.882 77.8811 136.38 78.4872C135.202 80.015 133.376 80.7789 130.902 80.7789C129.382 80.7506 127.874 80.5449 126.421 80.1678C124.671 79.7793 123.145 78.8717 122.124 77.6113C121.075 76.3198 120.529 74.7848 120.562 73.2195C120.567 72.7449 120.617 72.2715 120.712 71.8037Z" fill="white"/>
<path d="M146.998 64.6619C147.147 63.7982 147.374 62.4999 147.676 60.767C147.797 59.7485 148.582 59.2393 150.03 59.2393C150.898 59.2375 151.747 59.4499 152.473 59.8504C152.835 60.1559 152.91 60.5898 152.7 61.148C151.524 63.2869 150.935 65.8841 150.935 68.9396C153.8 68.7115 155.173 68.5974 155.054 68.5974C156.623 68.5974 157.408 68.9661 157.408 69.7035C157.405 69.872 157.374 70.0393 157.316 70.2006C157.015 71.0154 156.05 71.5117 154.419 71.6896C153.845 71.767 152.426 71.8051 150.163 71.8037C150.092 72.2212 150.062 72.643 150.074 73.0646C150.074 74.2869 150.269 76.8202 150.66 80.6648C150.993 84.2554 151.129 86.4072 151.068 87.1202C151.009 87.9866 150.481 88.4191 149.484 88.4178C148.548 88.4178 147.914 88.0104 147.582 87.1956C147.312 86.56 147.025 83.9886 146.723 79.4813C146.452 75.1791 146.075 72.6586 145.59 71.9198C144.354 72.7088 143.133 73.1033 141.925 73.1033C141.407 73.1094 140.899 72.9752 140.477 72.7204C140.248 72.6159 140.055 72.4617 139.92 72.2738C139.785 72.0858 139.711 71.8708 139.707 71.6509C139.707 71.1172 140.1 70.6338 140.885 70.2006C141.276 70.0485 142.226 69.819 143.736 69.512C144.911 69.3097 145.696 69.0048 146.09 68.5974C146.484 68.19 146.726 67.5789 146.814 66.7641C146.877 66.0511 146.935 65.3504 146.998 64.6619Z" fill="white"/>
<path d="M86.9606 62.8365C87.8201 62.1385 88.6176 61.7895 89.3531 61.7895C89.7523 61.8083 90.143 61.8942 90.5023 62.0421C90.8051 62.171 91.1316 62.2558 91.468 62.2926C91.6593 62.2882 91.8467 62.2454 92.0146 62.1679C92.1825 62.0903 92.3262 61.9802 92.4337 61.8465C92.6985 61.5795 92.8452 61.2433 92.8489 60.8952C92.857 60.7324 92.8194 60.5702 92.7393 60.4219C92.6592 60.2736 92.5388 60.1434 92.3878 60.0417C91.2242 59.2418 90.013 58.8412 88.7544 58.8398C87.4056 58.8398 86.4552 59.4476 85.9032 60.663C85.7545 60.9582 85.6766 61.2752 85.6738 61.596C85.6738 62.4746 85.9957 62.9139 86.6395 62.9139C86.7535 62.9168 86.8657 62.8898 86.9606 62.8365Z" fill="white"/>
</svg>
