<svg width="126" height="62" viewBox="0 0 126 62" fill="none" xmlns="http://www.w3.org/2000/svg">
<path d="M4.10494 30.2265C2.25081 30.2795 0.756398 29.1693 0.604302 27.7821C0.452205 26.3949 1.65208 25.0117 3.32997 24.8834C4.35003 24.7903 5.38165 24.9071 6.33651 25.2239C7.29136 25.5407 8.141 26.048 8.81269 26.7025C9.17482 27.0406 9.29553 27.4888 8.90443 27.8839C7.69175 29.1276 5.98723 29.9596 4.10494 30.2265Z" fill="#F8733C"/>
<path d="M57.6695 25.6289C57.215 25.2009 56.7236 24.8019 56.1993 24.4352C52.5589 21.7242 48.5774 19.358 44.3261 17.3789C43.0514 16.7861 42.0495 16.0691 42.2016 14.7165C42.3319 13.5472 43.2662 12.9117 45.2435 12.5613C48.0875 12.0602 50.8445 11.3391 53.4181 10.182C54.6252 9.63813 55.784 9.03924 56.728 8.1898C57.672 7.34035 57.7251 6.60091 56.8511 5.72091C56.6328 5.49863 56.3903 5.29404 56.1268 5.1098C51.9792 2.24369 47.257 0.614059 41.8684 0.512207H41.3856H40.1108H39.4204L38.713 0.522393L37.9887 0.534615L37.2814 0.548875L36.5909 0.563133L35.9294 0.57943L35.3138 0.59369L34.7512 0.609984L34.2539 0.622209H33.8387H33.5152H33.293C33.0975 0.622209 32.9019 0.622209 32.704 0.622209H31.1565C28.6022 0.622209 26.0479 0.660912 23.4961 0.622209C22.125 0.594331 20.7803 0.943212 19.6647 1.61628C18.0713 2.55128 17.9747 3.90591 19.3412 5.07924C20.2538 5.86554 21.403 6.05498 22.6294 5.95109C23.6434 5.8635 24.6453 5.68628 25.6544 5.54369C28.0083 5.23813 30.3453 4.80424 32.7426 4.85924C33.5067 4.84603 34.2686 4.93471 34.9999 5.12202C36.7623 5.66184 37.0472 7.40147 35.5721 8.38128C35.0859 8.67164 34.5778 8.93497 34.0511 9.16961C30.517 10.9099 27.1773 12.9171 24.0731 15.1666C12.2611 23.7548 4.69647 34.4771 1.37932 47.3335C1.02601 48.664 0.776803 50.0128 0.633324 51.3709C0.500541 52.7092 1.39864 53.63 2.83269 53.8928C4.0398 54.1168 5.329 53.5444 5.92532 52.4485C6.2778 51.7987 6.52405 51.1061 6.81376 50.4318C8.76204 45.8892 11.1859 41.5483 14.6069 37.6474C20.8573 30.5178 29.2082 26.8674 39.7632 26.9224C44.4033 26.9448 48.8914 27.7005 53.2829 28.9411C53.8347 29.1237 54.399 29.2781 54.9728 29.4035C55.5604 29.5069 56.1717 29.4482 56.7168 29.2363C57.2619 29.0243 57.7118 28.6702 58.0003 28.2261C58.5797 27.3644 58.4952 26.4579 57.6695 25.6289ZM46.8562 4.79813C47.1604 4.79813 47.4577 4.87424 47.7106 5.01682C47.9635 5.1594 48.1606 5.36205 48.277 5.59916C48.3934 5.83626 48.4239 6.09716 48.3645 6.34887C48.3052 6.60058 48.1587 6.83179 47.9436 7.01326C47.7286 7.19473 47.4545 7.31832 47.1562 7.36839C46.8579 7.41845 46.5487 7.39276 46.2677 7.29455C45.9867 7.19633 45.7465 7.03002 45.5775 6.81663C45.4085 6.60324 45.3183 6.35237 45.3183 6.09573C45.3183 5.92532 45.3581 5.75659 45.4354 5.59916C45.5127 5.44173 45.626 5.29868 45.7688 5.17819C45.9116 5.0577 46.0811 4.96212 46.2677 4.89691C46.4543 4.8317 46.6542 4.79813 46.8562 4.79813Z" fill="#F8733C"/>
<path d="M30.2197 42.3225C30.2197 41.5593 30.453 40.4389 30.9198 38.9614C31.3865 37.4839 31.6207 36.4015 31.6223 35.7143C31.6329 35.2053 31.5255 34.6995 31.3061 34.2253C31.0333 33.1049 30.8981 32.5203 30.8981 32.4673C30.8817 32.2684 30.9324 32.0697 31.0443 31.8941C31.1563 31.7185 31.3249 31.5733 31.5306 31.4753C33.0568 30.6898 34.8128 30.2799 36.6005 30.2918C38.7083 30.3028 40.7732 30.7956 42.5757 31.7177C44.4647 32.6418 46.0499 33.9499 47.1869 35.5229C47.5339 35.9656 47.7224 36.4832 47.7301 37.014C47.7301 38.4643 46.1005 40.1062 42.8413 41.9395C43.8713 46.4984 45.3199 50.2921 47.1869 53.3204C47.2688 53.4226 47.3163 53.5416 47.3245 53.6647C47.3245 53.9703 47.0976 54.2249 46.6437 54.4286C46.1844 54.6339 45.6715 54.739 45.1517 54.7342C44.7142 54.7541 44.2819 54.6462 43.9277 54.4286C42.5403 53.4617 41.4547 51.7051 40.6709 49.1588C39.7953 46.4088 38.8594 44.5497 37.8631 43.5814C37.5613 43.3288 37.0495 43.2005 36.3253 43.2005C35.3885 43.2005 34.7995 43.3913 34.558 43.7729C34.3418 44.3932 34.2353 45.037 34.2418 45.6836C34.2418 46.4984 34.4679 47.6819 34.9202 49.2342C35.3741 50.8896 35.6155 52.0738 35.6444 52.7867C35.6758 53.1432 35.3427 53.4427 34.6498 53.6851C34.0088 53.9196 33.3004 53.9904 32.6122 53.8888C32.1004 53.7367 31.6634 53.3673 31.3012 52.7806C30.6655 51.3805 30.3034 49.6619 30.2148 47.6249L30.2197 42.3225ZM35.4658 37.3562C34.983 38.554 34.7415 39.2547 34.7415 39.4584C34.7415 39.9921 35.4924 40.259 36.994 40.259C39.129 40.2958 41.2027 39.6554 42.8051 38.4643C43.4641 38.1853 43.7949 37.8532 43.7949 37.4723C43.7915 37.3606 43.7439 37.253 43.6597 37.1668C42.5492 35.256 40.3876 34.1479 37.1751 33.8423C36.4846 33.7934 36.0339 34.2266 35.8231 35.1419C35.704 35.8821 35.5849 36.6201 35.4658 37.3562Z" fill="black"/>
<path d="M50.9942 43.9642C50.9652 42.2328 51.5687 40.7878 52.8048 39.6294C53.3989 39.0625 54.1337 38.6129 54.9569 38.3126C55.7801 38.0123 56.6717 37.8686 57.5681 37.8918C59.6202 37.8918 61.4381 38.5471 63.0219 39.8576C64.6056 41.1681 65.383 42.7026 65.354 44.4613C65.082 45.1742 63.9497 46.0271 61.9572 47.0198C59.4834 48.2665 58.1105 49.0045 57.8385 49.2341C57.3267 49.4378 57.0684 49.6557 57.0684 49.8839C57.0684 50.2913 57.4007 50.6539 58.0654 50.9716C58.5954 51.2562 59.2031 51.421 59.8302 51.4503C60.8265 51.4503 62.2598 51.0429 64.13 50.2281C64.4051 50.3904 64.628 50.608 64.7785 50.8613C64.929 51.1145 65.0023 51.3954 64.9919 51.6785C64.9924 52.1626 64.8012 52.6329 64.4487 53.0148C64.2842 53.2093 64.075 53.3739 63.8337 53.4988C63.5923 53.6237 63.3236 53.7064 63.0436 53.742C61.1122 53.9973 59.8906 54.1243 59.3788 54.1229C58.4255 54.1383 57.4792 53.9828 56.6024 53.6666C53.0133 52.3168 51.1438 49.0826 50.9942 43.9642ZM55.9288 45.9116C58.6135 45.8098 60.2431 45.0079 60.8177 43.5059C60.934 43.317 60.996 43.1077 60.9987 42.8948C60.9987 42.3597 60.6664 41.9272 60.0017 41.5972C59.3298 41.2636 58.5625 41.0917 57.783 41.1002C57.2475 41.0863 56.7171 41.1917 56.2451 41.4057C55.3696 41.7873 54.9318 42.5892 54.9318 43.8115C54.9318 45.1627 55.2641 45.8628 55.9288 45.9116Z" fill="black"/>
<path d="M73.082 37.8145C73.2333 37.4329 73.5656 36.2236 74.0791 34.1866C74.4412 32.7606 74.9393 31.6783 75.5735 30.9395C75.905 30.5077 76.5537 30.2917 77.5194 30.2917C78.0923 30.2917 78.4545 30.4445 78.6058 30.7501C79.6004 32.5576 80.5058 34.7984 81.3218 37.4723C81.9865 39.8149 82.6504 42.1697 83.3135 44.5368C83.3135 44.716 83.5163 44.8932 83.9243 45.0725C84.2357 45.185 84.5082 45.3623 84.7162 45.5879C84.8373 45.7544 84.9001 45.9465 84.8972 46.1419C84.9047 46.2247 84.8926 46.3078 84.8615 46.3865C84.8304 46.4652 84.781 46.5379 84.7162 46.6003C84.4777 47.071 84.3546 47.5775 84.354 48.0893C84.354 48.676 84.6252 49.6056 85.1676 50.8781C85.6811 52.05 85.8774 52.9789 85.7567 53.6647C85.636 54.3777 84.9721 54.7342 83.765 54.7342C83.4796 54.7502 83.1939 54.7063 82.9336 54.6064C82.6732 54.5065 82.4463 54.3537 82.273 54.1618C81.8481 53.6783 81.4859 52.6469 81.1866 51.0675C80.9435 49.7434 80.4301 48.8777 79.6463 48.4703C78.9353 48.1552 78.1412 47.9975 77.3383 48.0119C76.0314 47.981 74.7521 48.3322 73.7169 49.006C73.2631 49.3116 72.7649 50.4061 72.2225 52.2897C71.7703 53.9193 71.0315 54.7342 70.0063 54.7342C69.45 54.7111 68.9074 54.5808 68.4201 54.3532C68.3295 53.9888 68.2842 53.6174 68.2849 53.2451C68.2849 52.4561 68.5111 51.4634 68.9633 50.2669C69.5975 48.6115 69.9596 47.6181 70.0497 47.2868C70.8526 44.0846 71.8649 40.9223 73.082 37.8145ZM75.5735 41.253C75.3854 41.8902 75.1433 42.5151 74.8492 43.123C74.4871 43.8876 74.306 44.4227 74.306 44.7282C74.2934 44.8579 74.3249 44.9878 74.3968 45.1029C74.4686 45.218 74.5778 45.3134 74.7116 45.378C75.3743 45.6488 76.1051 45.7795 76.8409 45.759C78.077 45.759 78.8013 45.4663 79.0138 44.881C79.1657 44.434 79.2413 43.971 79.2383 43.506C79.1979 42.5066 78.9375 41.5223 78.4706 40.6032C78.3788 40.3751 77.8807 39.4455 76.9762 37.8145C76.313 38.503 75.8455 39.6492 75.5735 41.253Z" fill="black"/>
<path d="M88.7116 44.8037C89.1944 42.4122 90.4466 40.4519 92.4681 38.9228C94.1275 37.6761 95.259 36.8742 95.8626 36.5171C97.2789 35.6764 98.5914 35.2561 99.8002 35.2561C100.427 35.2542 101.046 35.3719 101.611 35.6004C101.827 35.6692 102.011 35.7963 102.134 35.9619C102.256 36.1276 102.311 36.3226 102.289 36.5171C102.287 36.7102 102.257 36.9024 102.2 37.0895C101.838 38.0061 101.053 38.7191 99.846 39.2283C97.8229 40.0432 96.7212 40.5015 96.541 40.6033C94.3086 42.0293 93.1321 43.557 93.0114 45.1867C92.8906 46.5624 93.2077 47.7466 93.9626 48.7393C94.4098 49.3119 95.0581 49.7521 95.8167 49.9982C96.5731 50.2019 97.3425 50.4185 98.1247 50.648C98.396 50.7495 98.6897 50.8016 98.9866 50.8007C99.6513 50.8007 100.537 50.4382 101.642 49.713C102.748 48.9878 103.57 48.6123 104.107 48.5865C104.831 48.5362 105.194 48.816 105.194 49.4258C105.165 50.1649 104.882 50.8811 104.38 51.4872C103.202 53.015 101.376 53.7789 98.9021 53.7789C97.3822 53.7506 95.8743 53.5449 94.4213 53.1678C92.6711 52.7793 91.1455 51.8717 90.1239 50.6113C89.0753 49.3198 88.5294 47.7848 88.5619 46.2195C88.5673 45.7449 88.6174 45.2715 88.7116 44.8037Z" fill="black"/>
<path d="M114.998 37.6619C115.147 36.7982 115.374 35.4999 115.676 33.767C115.797 32.7485 116.582 32.2393 118.03 32.2393C118.898 32.2375 119.747 32.4499 120.473 32.8504C120.835 33.1559 120.91 33.5898 120.7 34.148C119.524 36.2869 118.935 38.8841 118.935 41.9396C121.8 41.7115 123.173 41.5974 123.054 41.5974C124.623 41.5974 125.408 41.9661 125.408 42.7035C125.405 42.872 125.374 43.0393 125.316 43.2006C125.015 44.0154 124.05 44.5117 122.419 44.6896C121.845 44.767 120.426 44.8051 118.163 44.8037C118.092 45.2212 118.062 45.643 118.074 46.0646C118.074 47.2869 118.269 49.8202 118.66 53.6648C118.993 57.2554 119.129 59.4072 119.068 60.1202C119.009 60.9866 118.481 61.4191 117.484 61.4178C116.548 61.4178 115.914 61.0104 115.582 60.1956C115.312 59.56 115.025 56.9886 114.723 52.4813C114.452 48.1791 114.075 45.6586 113.59 44.9198C112.354 45.7088 111.133 46.1033 109.925 46.1033C109.407 46.1094 108.899 45.9752 108.477 45.7204C108.248 45.6159 108.055 45.4617 107.92 45.2738C107.785 45.0858 107.711 44.8708 107.707 44.6509C107.707 44.1172 108.1 43.6338 108.885 43.2006C109.276 43.0485 110.226 42.819 111.736 42.512C112.911 42.3097 113.696 42.0048 114.09 41.5974C114.484 41.19 114.726 40.5789 114.814 39.7641C114.877 39.0511 114.935 38.3504 114.998 37.6619Z" fill="black"/>
<path d="M54.9606 35.8365C55.8201 35.1385 56.6176 34.7895 57.3531 34.7895C57.7523 34.8083 58.143 34.8942 58.5023 35.0421C58.8051 35.171 59.1316 35.2558 59.468 35.2926C59.6593 35.2882 59.8467 35.2454 60.0146 35.1679C60.1825 35.0903 60.3262 34.9802 60.4337 34.8465C60.6985 34.5795 60.8452 34.2433 60.8489 33.8952C60.857 33.7324 60.8194 33.5702 60.7393 33.4219C60.6592 33.2736 60.5388 33.1434 60.3878 33.0417C59.2242 32.2418 58.013 31.8412 56.7544 31.8398C55.4056 31.8398 54.4552 32.4476 53.9032 33.663C53.7545 33.9582 53.6766 34.2752 53.6738 34.596C53.6738 35.4746 53.9957 35.9139 54.6395 35.9139C54.7535 35.9168 54.8657 35.8898 54.9606 35.8365Z" fill="black"/>
</svg>
